<?xml version="1.0" encoding="UTF-8"?>
<svg width="251px" height="122px" viewBox="0 0 251 122" version="1.1" xmlns="http://www.w3.org/2000/svg" xmlns:xlink="http://www.w3.org/1999/xlink">
    <title>illustration</title>
    <g id="-" stroke="none" stroke-width="1" fill="none" fill-rule="evenodd">
        <g id="活动列表备份" transform="translate(-925.000000, -378.000000)">
            <g id="内容无数据" transform="translate(903.000000, 378.000000)">
                <g id="illustration" transform="translate(22.000000, 0.000000)">
                    <g id="ico-tree-1" transform="translate(49.091735, 18.670114)" fill="#E3E9F2">
                        <path d="M39.9333798,77.6090008 C18.1843321,77.6090008 0.482653257,60.2108138 0.482653257,38.8202111 C0.482653257,17.4296083 18.177743,0.0298016758 39.9333798,0.0298016758 C61.6824274,0.0298016758 79.3841063,17.4296083 79.3841063,38.8202111 C79.3841063,60.2108138 61.6824274,77.6090008 39.9333798,77.6090008 L39.9333798,77.6090008 Z" id="Fill-1"></path>
                        <polygon id="Fill-2" points="38.7110974 90.3701547 41.9990698 90.3701547 41.9990698 38.8202111 38.7110974 38.8202111"></polygon>
                    </g>
                    <g id="ico-tree-2" transform="translate(98.510157, 25.730023)" fill="#E3E9F2" opacity="0.8">
                        <polygon id="Page-1" points="32.9456148 0.0775610203 0 73.6672426 29.4776554 73.6672426 29.4776554 83.7021992 36.4135743 83.7021992 36.4135743 73.6672426 65.8912297 73.6672426"></polygon>
                    </g>
                    <g id="ico-tree-3" transform="translate(139.692175, 45.692395)" fill="#E3E9F2" opacity="0.8">
                        <polygon id="Page-1" points="24.7092111 0.447532467 0 55.6397937 22.1082415 55.6397937 22.1082415 63.1660111 27.3101807 63.1660111 27.3101807 55.6397937 49.4184223 55.6397937"></polygon>
                    </g>
                    <g id="ico-tree-4" transform="translate(175.932352, 20.297283)" fill="#E3E9F2">
                        <path d="M8.73324484,36.385162 C2.71934168,36.385162 0.135502126,32.1244604 2.98901748,26.9259343 L15.4127026,4.24573131 C18.2609041,-0.958019485 22.9211145,-0.958019485 25.7746298,4.24573131 L38.1983149,26.9207097 C41.0465164,32.1244604 38.4626769,36.3799374 32.4540875,36.3799374 L8.73324484,36.3799374 L8.73324484,36.385162 Z" id="Fill-1"></path>
                        <path d="M7.09393481,69.339638 C1.084017,69.339638 -1.37494804,65.1455507 1.63001086,60.0332313 L15.1270853,37.0486925 C18.1360296,31.9311484 23.0513028,31.9311484 26.0549332,37.0486925 L39.5573215,60.0332313 C42.5569666,65.1455507 40.1033154,69.339638 34.0880837,69.339638 L7.09393481,69.339638 Z" id="Fill-2"></path>
                        <path d="M7.09393481,53.4214375 C1.084017,53.4214375 -1.37494804,49.2377995 1.63001086,44.1150308 L15.1270853,21.1344105 C18.1360296,16.0116417 23.0513028,16.0116417 26.0549332,21.1344105 L39.5573215,44.1150308 C42.5569666,49.2325749 40.1033154,53.4214375 34.0880837,53.4214375 L7.09393481,53.4214375 Z" id="Fill-3"></path>
                        <path d="M22.5425056,52.5332471 C22.5425056,50.5635543 21.6657271,48.95175 20.5856955,48.95175 C19.5162914,48.95175 18.639513,50.5635543 18.639513,52.5332471 L18.639513,88.7439859 L22.5371918,88.7439859 L22.5371918,52.5332471 L22.5425056,52.5332471 Z" id="Fill-4"></path>
                    </g>
                    <g id="ico-tree-5" opacity="0.7" transform="translate(30.971646, 62.849557)" fill="#E3E9F2">
                        <path d="M20.3741733,39.8718958 C9.27772047,39.8718958 0.246251662,30.9952698 0.246251662,20.0816969 C0.246251662,9.16812407 9.27435867,0.290671719 20.3741733,0.290671719 C31.4706262,0.290671719 40.502095,9.16812407 40.502095,20.0816969 C40.502095,30.9952698 31.4706262,39.8718958 20.3741733,39.8718958 L20.3741733,39.8718958 Z" id="Fill-1"></path>
                        <polygon id="Fill-2" points="19.7505599 46.5826647 21.4280968 46.5826647 21.4280968 20.281673 19.7505599 20.281673"></polygon>
                    </g>
                    <path d="M45.7521571,25.4365176 C40.0303762,24.0616396 39.1288487,23.1739633 37.7253196,17.544361 C37.608575,17.0660871 37.1727287,16.7332085 36.6759157,16.7332085 C36.1803999,16.7332085 35.7445535,17.0660871 35.6278089,17.544361 C34.2294685,23.1701371 33.3318325,24.0514364 27.6061601,25.431416 C27.1197244,25.5462017 26.7811652,25.9747351 26.7811652,26.4632121 C26.7811652,26.9504138 27.1197244,27.3789472 27.6061601,27.4937329 C33.3266438,28.8737125 34.2242798,29.7562872 35.6278089,35.3858895 C35.7445535,35.8641634 36.1803999,36.197042 36.6759157,36.197042 C37.1727287,36.197042 37.608575,35.8641634 37.7253196,35.3858895 C39.1288487,29.7601134 40.0303762,28.8737125 45.7521571,27.4937329 C46.2385928,27.3789472 46.577152,26.9504138 46.577152,26.4632121 C46.577152,25.9747351 46.2334041,25.5564049 45.7521571,25.4365176 L45.7521571,25.4365176 Z" id="ico-asset-2" fill="#E3E9F2"></path>
                    <path d="M168.042633,16.389469 C164.353339,15.502974 163.772051,14.9306174 162.867083,11.3007578 C162.791808,10.992376 162.510783,10.7777423 162.190447,10.7777423 C161.870948,10.7777423 161.589923,10.992376 161.514648,11.3007578 C160.613025,14.9281503 160.034246,15.4963952 156.342443,16.3861796 C156.028798,16.4601912 155.810502,16.7365013 155.810502,17.0514619 C155.810502,17.3656002 156.028798,17.6419103 156.342443,17.7159219 C160.030901,18.6057063 160.609679,19.1747735 161.514648,22.8046331 C161.589923,23.1130149 161.870948,23.3276486 162.190447,23.3276486 C162.510783,23.3276486 162.791808,23.1130149 162.867083,22.8046331 C163.772051,19.1772406 164.353339,18.6057063 168.042633,17.7159219 C168.356278,17.6419103 168.574574,17.3656002 168.574574,17.0514619 C168.574574,16.7365013 168.352932,16.46677 168.042633,16.389469 L168.042633,16.389469 Z" id="ico-asset-2" fill="#E3E9F2"></path>
                    <path d="M235.054014,5.93121365 C231.36472,5.04471872 230.783432,4.47236207 229.878463,0.842502506 C229.803189,0.53412069 229.522163,0.319486946 229.201828,0.319486946 C228.882329,0.319486946 228.601303,0.53412069 228.526029,0.842502506 C227.624406,4.46989501 227.045627,5.03813991 223.353823,5.92792424 C223.040179,6.00193588 222.821882,6.27824598 222.821882,6.59320661 C222.821882,6.90734489 223.040179,7.18365499 223.353823,7.25766663 C227.042282,8.14745096 227.62106,8.71651821 228.526029,12.3463778 C228.601303,12.6547596 228.882329,12.8693933 229.201828,12.8693933 C229.522163,12.8693933 229.803189,12.6547596 229.878463,12.3463778 C230.783432,8.71898526 231.36472,8.14745096 235.054014,7.25766663 C235.367658,7.18365499 235.585955,6.90734489 235.585955,6.59320661 C235.585955,6.27824598 235.364313,6.00851469 235.054014,5.93121365 L235.054014,5.93121365 Z" id="ico-asset-2" fill="#E3E9F2"></path>
                    <ellipse id="ico-asset-3" stroke="#E3E9F2" stroke-width="2.07317073" fill="#FFFFFF" cx="122.551272" cy="14.7435892" rx="5.44922383" ry="5.34039958"></ellipse>
                    <ellipse id="ico-asset-3" stroke="#E3E9F2" stroke-width="1.7" fill="#FFFFFF" cx="20.4386924" cy="77.4931211" rx="4.46836354" ry="4.37912766"></ellipse>
                    <ellipse id="ico-asset-3" stroke="#E3E9F2" stroke-width="1.36" fill="#FFFFFF" cx="223.60018" cy="56.5766105" rx="3.57469083" ry="3.50330213"></ellipse>
                    <ellipse id="ico-asset-3" stroke="#E3E9F2" stroke-width="1.36" fill="#FFFFFF" cx="152.334108" cy="47.1641807" rx="3.57469083" ry="3.50330213"></ellipse>
                    <line x1="1.12624169" y1="120.085379" x2="250.179091" y2="120.085379" id="Line" stroke="#E3E9F2" stroke-linecap="square"></line>
                </g>
            </g>
        </g>
    </g>
</svg>